<svg width="512" height="512" viewBox="0 0 512 512" fill="none" xmlns="http://www.w3.org/2000/svg">
  <style>
    @keyframes forward {
      from {
        transform: rotate(0deg);
      }
      to {
        transform: rotate(360deg);
      }
    }

    @keyframes backward {
      from {
        transform: rotate(360deg);
      }
      to {
        transform: rotate(0deg);
      }
    }

    @keyframes pulse {
      50% {
        transform: scale(1.2);
      }
      0%,
      100% {
        transform: scale(1);
      }
    }

    .singularity {
      animation: pulse 3s linear infinite;
      transform-origin: center;
    }

    #rotate {
      animation: forward 100s linear infinite;
      transform-origin: center;
    }

    #pulse {
      animation: forward 250s linear infinite;
      transform-origin: center;
    }

    #wrapper {
      transform: scale(0.95);
      transform-origin: center;
    }
  </style>
  <g id="rotate">
    <rect width="512" height="512" fill="black" fill-opacity="0" />
    <rect width="476.612" height="471.768" fill="black" fill-opacity="0" transform="translate(17.6941 20.6158)" />
    <rect width="476.612" height="471.768" fill="black" fill-opacity="0" transform="translate(17.6941 20.6158)" />
    <rect width="476.612" height="471.768" fill="black" fill-opacity="0" transform="translate(17.6941 20.6158)" />
    <path d="M255.937 492.265C387.514 492.265 494.179 386.683 494.179 256.44C494.179 126.198 387.514 20.6158 255.937 20.6158C124.359 20.6158 17.6941 126.198 17.6941 256.44C17.6941 386.683 124.359 492.265 255.937 492.265Z"
      fill="#141160" />
    <rect width="442.43" height="438.079" fill="black" fill-opacity="0" transform="translate(17.7146 54.3051)" />
    <path d="M424.517 423.302C331.445 515.429 180.556 515.399 87.4849 423.287C-5.54214 331.175 -5.54214 181.833 87.4849 89.7059"
      fill="#241B7A" />
    <path d="M255.937 458.576C368.717 458.576 460.144 368.077 460.144 256.44C460.144 144.804 368.717 54.3051 255.937 54.3051C143.156 54.3051 51.7287 144.804 51.7287 256.44C51.7287 368.077 143.156 458.576 255.937 458.576Z"
      fill="#241B7A" />
    <rect width="372.174" height="403.786" fill="black" fill-opacity="0" transform="translate(52.0454 54.6185)" />
    <path d="M256.008 458.404C143.367 458.389 52.0605 368.002 52.0454 256.504C52.0605 145.02 143.381 54.6401 256.008 54.6185"
      fill="#33248E" />
    <path d="M255.937 423.015C348.876 423.015 424.219 348.437 424.219 256.44C424.219 164.444 348.876 89.8659 255.937 89.8659C162.997 89.8659 87.6542 164.444 87.6542 256.44C87.6542 348.437 162.997 423.015 255.937 423.015Z"
      fill="#33248E" />
    <rect width="295.304" height="292.296" fill="black" fill-opacity="0" transform="translate(87.3176 89.543)" />
    <path d="M136.709 374.585C70.8486 309.363 70.8562 203.659 136.717 138.437C202.6 73.245 309.396 73.245 375.271 138.437" fill="#432DA0"
    />
    <path d="M255.937 381.839C325.903 381.839 382.621 325.696 382.621 256.44C382.621 187.185 325.903 131.042 255.937 131.042C185.971 131.042 129.252 187.185 129.252 256.44C129.252 325.696 185.971 381.839 255.937 381.839Z"
      fill="#432DA0" />
    <path d="M256.001 381.705C186.149 381.705 129.522 325.654 129.522 256.503C129.522 187.367 186.149 131.316 256.001 131.308"
      fill="#583CAF" />
    <path d="M95.7884 455.087C95.7884 455.087 91.1635 450.554 82.496 442.069C74.0365 433.488 62.2407 419.652 50.1319 400.171C38.8126 380.319 27.1132 354.417 21.5286 322.499C15.981 290.84 15.34 253.032 27.1661 214.245C30.2046 204.618 33.2054 194.689 37.7783 185.158C41.6062 175.28 47.1094 166 52.4935 156.395C64.1107 137.819 78.2379 119.501 95.7525 103.874C99.4538 100.085 104.585 96.2594 109.611 92.4562L117.162 86.7506L125.019 81.8928C130.261 78.6493 135.548 75.3328 141.29 72.8117C146.927 70.1437 152.505 67.121 158.545 65.138C182.151 55.8211 208.246 51.1692 234.741 51.4274C287.764 51.8701 342.669 73.4312 381.721 114.74C421.383 155.43 437.625 219.081 421.584 274.925C413.75 302.9 397.992 328.5 377.618 348.926C368.004 358.273 354.347 368.245 341.374 374.607C328.111 381.389 313.634 385.479 299.106 387.662C269.913 392.269 239.777 386.556 214.286 373.31C201.633 366.484 190.12 357.904 180.097 348.026L173.343 340.508C171.176 337.892 168.718 334.434 166.507 331.397C162.419 325.191 159.052 319.072 156.275 312.467C145.172 286.292 144.613 256.696 154.093 231.339C158.732 218.631 165.687 206.955 174.236 196.959L180.998 189.824L181.422 189.381L182.406 188.438L183.21 187.752L184.812 186.381L188.044 183.624C190.747 181.567 193.86 179.356 196.772 177.425C199.684 175.811 202.514 174.071 205.508 172.656C229.442 161.157 257.122 160.847 279.79 170.172C291.139 174.779 301.238 181.656 309.421 189.883L310.21 190.642L310.612 191.018C310.575 190.988 312.385 192.963 311.744 192.293L312.891 193.782L315.192 196.738C316.719 198.832 318.23 200.402 319.757 202.893C321.292 205.658 322.766 208.451 324.151 211.259L326.206 215.431C326.727 216.817 327.01 218.196 327.435 219.567C334.271 241.349 330.168 264.554 318.543 281.235C315.512 285.296 311.982 288.908 308.766 292.58C308.372 292.941 309.227 292.233 307.805 293.486L307.477 293.73L306.815 294.201L305.534 295.167L302.972 297.084C301.274 298.352 299.769 299.634 297.155 300.828C294.787 301.993 292.442 303.142 290.11 304.285C287.78 305.405 285.464 305.671 283.17 306.371C278.642 307.867 273.973 307.956 269.445 308.198C251.037 308.67 235.115 299.589 225.509 287.61C224.473 286.224 223.461 284.994 222.485 283.49C221.599 281.706 220.698 279.937 219.812 278.176C217.801 274.674 217.615 271.165 216.579 267.811C216.207 264.376 215.924 260.963 216.11 257.72C216.714 254.491 216.594 251.24 217.853 248.358C221.368 236.659 229.656 227.652 237.803 223.855C246.65 219.558 254.804 219.956 260.918 221.298C273.116 225.064 276.713 231.389 276.944 230.924C276.817 231.374 272.259 225.551 260.493 223.369C254.744 222.669 247 223.479 240.298 227.74C238.6 228.485 236.94 230.195 235.174 231.78L233.857 232.974C233.879 233.025 233.298 233.784 233.052 234.132C232.382 235.053 231.696 235.974 231.026 236.911C228.308 240.634 226.342 245.233 225.359 250.209C224.488 252.619 224.965 255.331 224.66 257.919C224.764 260.558 225.286 263.241 225.791 265.902C226.894 268.357 227.326 271.409 228.949 273.436L230.914 276.834C231.86 278.043 233.119 279.311 234.221 280.564C242.39 288.702 255.258 295.137 268.819 293.478C272.155 292.976 275.573 292.755 278.745 291.333C280.294 290.699 282.156 290.397 283.459 289.549C284.807 288.731 286.14 287.964 287.51 287.235C289.879 286.254 294.481 281.522 296.141 280.181C298.256 277.158 300.691 274.321 302.702 271.195C310.245 258.303 312.011 241.548 306.306 226.739C305.985 225.817 305.74 224.807 305.361 223.959L303.968 221.689C303.075 220.178 302.247 218.645 301.458 217.067C300.393 215.386 298.345 213.396 296.833 211.553L294.361 208.73L293.124 207.315C292.268 206.408 293.898 208.178 293.616 207.904L293.303 207.654L292.685 207.152C286.302 201.476 278.729 197.024 270.448 194.252C253.982 188.576 234.613 189.652 218.654 198.269C216.659 199.323 214.797 200.65 212.861 201.778L207.984 205.5L204.901 208.39L203.359 209.828L202.569 210.565C202.316 210.793 203.403 209.814 202.808 210.381L202.517 210.727L197.788 216.159C191.913 223.737 187.31 232.361 184.406 241.59C178.62 260.018 179.32 280.923 187.69 299.012C189.701 303.501 192.345 307.939 195.048 311.839C196.522 313.637 197.52 315.251 199.262 317.308L204.952 323.338C212.719 330.51 221.402 336.643 230.881 341.449C249.998 350.531 272.145 354.409 293.51 350.907C304.144 349.167 314.704 346.182 324.288 341.103C334.222 335.833 341.609 330.68 350.553 322.159C366.244 306.045 378.159 286.253 384.108 264.603C396.73 221.333 385.195 172.307 353.867 139.638C338.6 123.627 319.388 109.688 298.931 100.474C278.347 91.1423 256.059 86.0412 233.919 85.2233C189.617 83.4912 146.269 99.1997 115.118 125.102C82.8884 152.022 60.8973 186.401 48.3271 220.929C44.9757 229.51 43.1142 238.377 40.6344 246.846C39.3089 255.566 37.0825 264.006 36.4717 272.417C35.8317 280.814 34.6178 289.047 35.064 297.082C35.0943 301.099 35.1311 305.058 35.1538 308.971C35.1983 312.886 35.8761 316.689 36.1891 320.478C39.2569 350.737 47.7987 376.426 56.936 396.609C67.0112 416.408 76.4539 431.173 84.0427 440.682C91.7081 450.067 95.7884 455.087 95.7884 455.087Z"
      fill="#AC79E2" />
    <rect width="398.751" height="326.675" fill="black" fill-opacity="0" transform="translate(17.7009 62.59)" />
    <path d="M216.66 253.57C217.545 251.617 218.536 249.737 219.735 248.1C220.42 247.157 221.097 246.235 221.761 245.321C222.007 244.967 222.595 244.208 222.573 244.156L223.883 242.969C225.649 241.384 227.316 239.674 229.007 238.923C229.401 238.672 229.825 238.539 230.236 238.311C230.526 237.868 230.697 237.353 231.01 236.932C231.688 235.997 232.372 235.067 233.036 234.153C233.282 233.807 233.862 233.047 233.841 232.995L234.496 232.398C231.912 232.936 229.261 233.695 226.49 235.045C225.447 235.531 224.412 236.114 223.363 236.762C221.046 240.197 219.11 244.104 217.829 248.387C217.129 250.009 216.868 251.764 216.66 253.57Z"
      fill="#814FC1" />
    <path d="M147.254 76.3191C141.208 78.2946 135.637 81.3173 130 83.9927C124.266 86.5213 118.978 89.8238 113.728 93.0813L105.88 97.9317L98.3212 103.637C93.2869 107.44 88.1637 111.267 84.4625 115.055C83.6655 115.77 82.9583 116.552 82.1765 117.274C70.738 129.57 60.9228 142.911 52.486 156.409C47.1019 166.014 41.5987 175.294 37.7707 185.172C33.1987 194.703 30.1971 204.632 27.1585 214.259C15.3475 253.039 15.9885 290.846 21.5362 322.507C22.9212 330.453 24.6863 338.016 26.7416 345.21C26.0193 340.788 25.3859 336.299 24.917 331.647C24.604 327.873 23.9262 324.076 23.8893 320.155C23.8666 316.241 23.8222 312.282 23.7929 308.266C23.3533 300.216 24.5672 291.997 25.2081 283.601C25.8264 275.176 28.0377 266.744 29.3708 258.023C31.8506 249.56 33.7121 240.693 37.0787 232.113C48.5843 200.505 68.0729 169.08 96.0361 143.325C101.979 136.986 108.279 130.86 115.137 125.125C146.295 99.2221 189.636 83.5146 233.938 85.2467C256.085 86.0572 278.374 91.1657 298.95 100.498C319.406 109.712 338.619 123.651 353.885 139.661C385.214 172.338 396.75 221.358 384.127 264.627C378.177 286.277 366.269 306.068 350.572 322.182C348.553 324.099 346.647 325.794 344.756 327.394C342.991 329.436 341.181 331.426 339.289 333.357C330.353 341.863 322.966 347.031 313.039 352.301C303.44 357.38 292.888 360.365 282.261 362.091C260.881 365.592 238.734 361.714 219.618 352.648C210.138 347.842 201.455 341.695 193.695 334.537L188.005 328.507C186.263 326.436 185.265 324.836 183.791 323.023C181.095 319.139 178.436 314.686 176.44 310.197C168.062 292.13 167.355 271.225 173.156 252.79C176.053 243.561 180.655 234.929 186.538 227.352L191.252 221.919L191.557 221.565C192.138 220.997 191.058 221.978 191.311 221.75L192.093 221.02L193.635 219.582L196.718 216.693L198.669 215.211L202.542 210.751L202.832 210.405C203.428 209.837 202.34 210.818 202.594 210.589L203.383 209.852L204.925 208.414L208.008 205.525L212.886 201.802C214.829 200.674 216.691 199.347 218.679 198.294C234.645 189.677 254.007 188.601 270.472 194.276C278.753 197.041 286.327 201.493 292.709 207.176L293.327 207.678L293.64 207.929C293.915 208.201 292.285 206.44 293.149 207.339L294.385 208.754L296.858 211.578C298.369 213.42 300.425 215.411 301.482 217.091C302.264 218.677 303.098 220.209 303.993 221.713L305.385 223.984C305.765 224.831 306.011 225.841 306.331 226.763C312.035 241.572 310.262 258.327 302.727 271.22C300.716 274.345 298.28 277.183 296.166 280.205C294.654 281.414 290.797 285.314 288.309 286.773C287.14 288.299 285.985 289.81 284.876 291.38C283.215 292.707 278.621 297.454 276.253 298.434C274.883 299.156 273.55 299.915 272.21 300.748C270.9 301.581 269.037 301.898 267.481 302.532C264.308 303.954 260.89 304.161 257.562 304.662C254.635 305.023 251.761 304.949 248.931 304.603C255.239 307.021 262.127 308.406 269.463 308.215C273.983 307.972 278.652 307.884 283.187 306.387C285.481 305.68 287.789 305.422 290.127 304.301C292.458 303.166 294.804 302.009 297.172 300.845C299.794 299.651 301.298 298.368 302.989 297.1L304.053 296.312C305.14 295.029 306.272 293.775 307.278 292.427C318.91 275.724 323.006 252.533 316.177 230.751C315.745 229.38 315.47 228.002 314.94 226.624L312.885 222.444C311.515 219.636 310.033 216.842 308.506 214.086C306.964 211.587 305.467 210.017 303.934 207.938L301.621 204.971L300.489 203.482C301.115 204.153 299.305 202.177 299.342 202.214L298.947 201.838L298.165 201.079C289.973 192.844 279.868 185.982 268.527 181.368C245.859 172.043 218.186 172.36 194.244 183.845C191.257 185.267 188.428 187.007 185.502 188.614C182.59 190.545 179.484 192.757 176.781 194.812L174.331 196.906L174.256 196.987C165.707 206.975 158.752 218.651 154.112 231.367C144.633 256.725 145.191 286.327 156.294 312.495C159.072 319.1 162.438 325.225 166.527 331.425C168.738 334.462 171.196 337.92 173.363 340.536L180.117 348.054C190.14 357.932 201.653 366.512 214.306 373.338C239.797 386.585 269.934 392.297 299.126 387.69C313.655 385.501 328.132 381.41 341.394 374.635C352.326 369.276 363.585 361.36 372.671 353.399C389.977 334.182 403.322 311.117 410.322 286.121C426.378 230.269 410.136 166.616 370.467 125.927C331.371 84.6113 276.479 63.0502 223.458 62.6001C196.955 62.3437 170.86 66.9947 147.254 76.3191Z"
      fill="#814FC1" />
    <path d="M416.221 57.9351C416.221 57.9351 420.838 62.4607 429.506 70.9457C437.965 79.5261 449.769 93.3696 461.87 112.837C473.197 132.695 484.895 158.598 490.466 190.524C496.028 222.177 496.654 259.983 484.828 298.772C481.797 308.406 478.796 318.321 474.216 327.851C470.388 337.729 464.892 347.017 459.508 356.614C447.899 375.19 433.764 393.515 416.249 409.135C412.54 412.924 407.417 416.75 402.39 420.553L394.84 426.266L386.983 431.101C381.733 434.352 376.453 437.669 370.719 440.182C365.06 442.858 359.496 445.88 353.457 447.856C329.85 457.173 303.764 461.832 277.26 461.574C224.238 461.125 169.325 439.578 130.273 398.239C90.6133 357.564 74.3712 293.906 90.4346 238.068C98.2465 210.109 114.004 184.508 134.401 164.068C143.999 154.729 157.658 144.748 170.63 138.394C183.893 131.605 198.355 127.529 212.905 125.325C242.083 120.718 272.228 126.445 297.718 139.684C310.378 146.517 321.883 155.09 331.899 164.96L338.661 172.486C340.835 175.095 343.278 178.553 345.497 181.589C349.592 187.803 352.951 193.922 355.729 200.519C366.825 226.695 367.391 256.298 357.896 281.67C353.264 294.371 346.316 306.032 337.752 316.035L331.006 323.163L330.574 323.612L329.598 324.563L328.793 325.241L327.192 326.627L323.96 329.377C321.257 331.433 318.143 333.652 315.232 335.583C312.312 337.197 309.49 338.937 306.489 340.344C282.562 351.836 254.882 352.153 232.221 342.821C220.879 338.214 210.759 331.345 202.583 323.11L201.793 322.359L201.405 321.983C201.435 322.013 199.619 320.037 200.259 320.7L199.112 319.218L196.811 316.255C195.269 314.184 193.772 312.598 192.245 310.107C190.711 307.343 189.237 304.549 187.845 301.755L185.789 297.568C185.283 296.182 184.985 294.819 184.568 293.433C177.739 271.651 181.842 248.446 193.459 231.765C196.483 227.718 200.02 224.084 203.23 220.42C203.639 220.051 202.769 220.766 204.221 219.506L204.526 219.262L205.181 218.783L206.47 217.825L209.04 215.908C210.745 214.648 212.257 213.358 214.856 212.164C217.216 211.007 219.585 209.85 221.908 208.721C224.231 207.601 226.547 207.336 228.834 206.628C233.361 205.132 238.038 205.05 242.581 204.8C260.975 204.336 276.889 213.41 286.502 225.381C287.53 226.774 288.55 228.005 289.518 229.501C290.412 231.292 291.305 233.068 292.2 234.816C294.21 238.317 294.397 241.833 295.432 245.187C295.812 248.615 296.087 252.028 295.901 255.279C295.29 258.508 295.409 261.759 294.151 264.641C290.636 276.347 282.355 285.347 274.208 289.143C265.361 293.433 257.215 293.043 251.086 291.693C238.895 287.934 235.291 281.602 235.06 282.059C235.194 281.61 239.759 287.44 251.518 289.63C257.267 290.337 265.012 289.512 271.706 285.266C273.411 284.5 275.072 282.789 276.837 281.205L278.139 280.026C278.124 279.967 278.706 279.222 278.958 278.861C279.621 277.939 280.299 277.033 280.984 276.081C283.702 272.351 285.654 267.759 286.643 262.791C287.507 260.373 287.031 257.668 287.343 255.073C287.231 252.442 286.717 249.744 286.211 247.09C285.109 244.635 284.677 241.576 283.046 239.556L281.087 236.144C280.142 234.942 278.876 233.674 277.781 232.421C269.612 224.283 256.736 217.847 243.183 219.514C239.847 220.016 236.429 220.229 233.271 221.659C231.7 222.293 229.846 222.595 228.535 223.443C227.187 224.276 225.869 225.035 224.484 225.757C222.123 226.73 217.521 231.478 215.867 232.804C213.753 235.84 211.317 238.671 209.3 241.797C201.756 254.689 199.991 271.437 205.696 286.253C206.03 287.16 206.262 288.17 206.656 289.018L208.026 291.296C208.927 292.807 209.753 294.347 210.536 295.933C211.608 297.606 213.649 299.604 215.161 301.446L217.641 304.255L218.884 305.677C219.733 306.584 218.11 304.829 218.393 305.088L218.69 305.346L219.316 305.847C225.691 311.523 233.279 315.968 241.552 318.748C258.017 324.423 277.379 323.34 293.338 314.715C295.341 313.661 297.195 312.356 299.139 311.213L304.016 307.483L307.099 304.586L308.641 303.149L309.431 302.426C309.684 302.183 308.604 303.164 309.192 302.596L309.482 302.249L314.204 296.824C320.087 289.24 324.682 280.615 327.594 271.386C333.365 252.958 332.672 232.053 324.309 213.971C322.306 209.482 319.655 205.045 316.952 201.145C315.47 199.332 314.472 197.732 312.738 195.654L307.048 189.632C299.281 182.467 290.598 176.334 281.118 171.514C261.995 162.432 239.855 158.569 218.475 162.071C207.856 163.803 197.296 166.781 187.697 171.867C177.778 177.13 170.39 182.298 161.447 190.812C145.748 206.941 133.826 226.732 127.876 248.382C115.269 291.645 126.797 340.671 158.126 373.333C173.385 389.358 192.597 403.291 213.054 412.505C233.645 421.837 255.925 426.93 278.072 427.748C322.382 429.473 365.722 413.772 396.873 387.869C429.118 360.949 451.086 326.569 463.664 292.042C467.008 283.477 468.87 274.594 471.357 266.125C472.682 257.412 474.895 248.972 475.52 240.547C476.16 232.15 477.366 223.925 476.935 215.89C476.898 211.872 476.853 207.906 476.838 204C476.808 200.086 476.124 196.283 475.803 192.501C472.735 162.249 464.201 136.56 455.056 116.362C444.973 96.5701 435.538 81.7983 427.95 72.297C420.295 62.9473 416.221 57.9351 416.221 57.9351Z"
      fill="#22D0FF" />
    <rect width="393.048" height="321.089" fill="black" fill-opacity="0" transform="translate(101.218 123.775)" />
  </g>
  <g id="pulse">
    <path d="M431.293 394.06C442.077 382.229 451.452 369.514 459.51 356.613C464.894 347.008 470.39 337.728 474.218 327.85C478.797 318.319 481.799 308.398 484.83 298.771C493.952 268.851 495.613 239.557 493.372 213.19C493.066 216.713 492.701 220.252 492.434 223.834C491.808 232.259 489.589 240.699 488.264 249.412C485.776 257.882 483.915 266.757 480.571 275.33C468.76 307.749 448.541 339.976 419.425 366.086C412.544 373.744 405.045 381.057 396.868 387.898C365.711 413.801 322.377 429.508 278.068 427.776C255.913 426.958 233.632 421.857 213.049 412.533C192.592 403.319 173.38 389.38 158.121 373.362C126.785 340.691 115.256 291.673 127.864 248.403C133.815 226.746 145.73 206.961 161.435 190.832C164.54 187.884 167.445 185.437 170.326 183.151C172.881 180.026 175.539 176.974 178.346 174.084C187.29 165.578 194.677 160.41 204.611 155.14C214.196 150.069 224.755 147.083 235.389 145.344C256.769 141.842 278.901 145.712 298.04 154.786C307.506 159.607 316.188 165.74 323.948 172.904L329.638 178.926C331.38 180.997 332.371 182.597 333.852 184.417C336.548 188.31 339.221 192.755 341.217 197.236C349.572 215.325 350.287 236.223 344.494 254.659C341.597 263.888 337.002 272.512 331.112 280.083L326.383 285.523L326.1 285.869C325.512 286.429 326.584 285.449 326.338 285.684L325.541 286.422L324.014 287.859L320.916 290.757L316.046 294.472C315.935 294.531 315.838 294.605 315.726 294.656C315.212 295.379 314.735 296.137 314.192 296.845L309.47 302.27L309.18 302.616C308.592 303.177 309.672 302.196 309.418 302.447L308.629 303.169L307.087 304.607L304.004 307.504L299.127 311.234C297.175 312.369 295.321 313.681 293.326 314.736C277.359 323.36 258.005 324.436 241.54 318.768C233.267 315.989 225.678 311.545 219.304 305.868L218.678 305.366L218.38 305.108C218.098 304.85 219.728 306.605 218.872 305.698L217.629 304.275L215.901 302.3L216.036 302.484L217.19 303.966C216.557 303.302 218.359 305.278 218.329 305.249L218.723 305.625L219.505 306.376C227.697 314.61 237.803 321.465 249.144 326.087C271.804 335.419 299.485 335.102 323.426 323.61C326.405 322.188 329.258 320.44 332.162 318.834C334.716 317.146 337.367 315.251 339.817 313.423C347.398 304.024 353.66 293.307 357.898 281.689C367.392 256.318 366.826 226.714 355.731 200.539C352.953 193.934 349.594 187.815 345.499 181.609C343.28 178.572 340.837 175.115 338.662 172.506L331.901 164.98C321.885 155.117 310.38 146.537 297.72 139.703C272.229 126.472 242.084 120.745 212.907 125.344C198.356 127.548 183.895 131.625 170.632 138.414C161.033 143.116 151.054 149.818 142.609 156.775C126.472 175.447 114.005 197.517 107.348 221.341C91.2921 277.186 107.534 340.852 147.203 381.52C186.248 422.836 241.161 444.405 294.191 444.855C320.694 445.098 346.773 440.447 370.372 431.137C376.419 429.146 381.997 426.139 387.642 423.463C393.368 420.942 398.649 417.632 403.898 414.382L411.755 409.532L419.313 403.833C423.601 400.568 427.801 397.303 431.293 394.06Z"
      fill="#14A2F2" />
    <path d="M294.398 263.883L293.758 264.472C291.985 266.058 290.317 267.767 288.627 268.534C287.108 269.485 285.529 270.23 283.936 270.863C283.198 272.433 282.372 273.93 281.419 275.323C284.45 274.852 287.585 274.055 290.891 272.485C292.201 270.038 293.319 267.414 294.153 264.642C294.263 264.398 294.315 264.14 294.398 263.883ZM209.302 241.813C211.32 238.687 213.754 235.85 215.869 232.82C217.53 231.493 222.125 226.745 224.486 225.773C225.2 225.404 225.871 224.984 226.564 224.586C228.5 221.66 230.778 218.94 232.782 216.072C234.449 214.738 239.037 209.998 241.42 209.018C242.782 208.288 244.115 207.529 245.456 206.704C246.603 205.959 248.181 205.613 249.603 205.112C247.31 204.861 244.957 204.751 242.581 204.81C238.046 205.061 233.369 205.141 228.834 206.637C226.548 207.337 224.239 207.611 221.908 208.731C219.584 209.858 217.216 211.016 214.856 212.174C213.054 213.007 211.788 213.883 210.611 214.761C210.544 214.85 210.455 214.931 210.395 215.027C198.771 231.715 194.668 254.921 201.496 276.695C201.913 278.081 202.211 279.444 202.733 280.83L204.773 285.017C205.22 285.909 205.734 286.801 206.188 287.708C206.039 287.221 205.868 286.742 205.697 286.27C199.993 271.453 201.758 254.705 209.302 241.813Z"
      fill="#14A2F2" />
    <rect width="386.576" height="345.773" fill="black" fill-opacity="0" transform="translate(67.8956 92.9366)" />
    <path d="M77.9231 304.704C73.1235 299.953 68.9333 296.398 68.5641 296.763C68.1949 297.129 71.7865 301.277 76.5861 306.028C81.3858 310.778 85.576 314.334 85.9452 313.968C86.3144 313.603 82.7228 309.455 77.9231 304.704Z"
      fill="#F4EBC1" />
    <path d="M77.9231 306.028C82.7228 301.277 86.3144 297.129 85.9451 296.763C85.5759 296.398 81.3858 299.953 76.5861 304.704C71.7864 309.455 68.1949 313.603 68.5641 313.968C68.9333 314.334 73.1235 310.778 77.9231 306.028Z"
      fill="#F4EBC1" />
    <path d="M448.8 209.913C449.322 209.913 449.745 207.399 449.745 204.298C449.745 201.197 449.322 198.683 448.8 198.683C448.277 198.683 447.854 201.197 447.854 204.298C447.854 207.399 448.277 209.913 448.8 209.913Z"
      fill="#F4EBC1" />
    <path d="M448.8 205.234C451.932 205.234 454.472 204.815 454.472 204.298C454.472 203.781 451.932 203.362 448.8 203.362C445.667 203.362 443.127 203.781 443.127 204.298C443.127 204.815 445.667 205.234 448.8 205.234Z"
      fill="#F4EBC1" />
    <path d="M148.16 145.342C148.682 145.342 149.106 142.828 149.106 139.727C149.106 136.626 148.682 134.112 148.16 134.112C147.638 134.112 147.215 136.626 147.215 139.727C147.215 142.828 147.638 145.342 148.16 145.342Z"
      fill="#F4EBC1" />
    <path d="M148.16 140.663C151.293 140.663 153.833 140.244 153.833 139.727C153.833 139.21 151.293 138.791 148.16 138.791C145.027 138.791 142.488 139.21 142.488 139.727C142.488 140.244 145.027 140.663 148.16 140.663Z"
      fill="#F4EBC1" />
    <path d="M349.923 169.286C343.647 163.073 337.96 158.629 337.222 159.36C336.483 160.091 340.973 165.72 347.249 171.932C353.526 178.145 359.213 182.589 359.951 181.858C360.689 181.127 356.2 175.498 349.923 169.286Z"
      fill="#F4EBC1" />
    <path d="M349.923 171.932C356.2 165.72 360.689 160.091 359.951 159.36C359.213 158.629 353.526 163.073 347.249 169.286C340.973 175.498 336.483 181.127 337.222 181.858C337.96 182.589 343.647 178.145 349.923 171.932Z"
      fill="#F4EBC1" />
    <path d="M309.825 422.342C310.869 422.342 311.715 415.22 311.715 406.433C311.715 397.647 310.869 390.525 309.825 390.525C308.78 390.525 307.934 397.647 307.934 406.433C307.934 415.22 308.78 422.342 309.825 422.342Z"
      fill="#F4EBC1" />
    <path d="M309.825 408.305C318.701 408.305 325.897 407.467 325.897 406.433C325.897 405.4 318.701 404.562 309.825 404.562C300.948 404.562 293.753 405.4 293.753 406.433C293.753 407.467 300.948 408.305 309.825 408.305Z"
      fill="#F4EBC1" />
    <path d="M71.5822 185.582C73.1486 185.582 74.4184 184.325 74.4184 182.775C74.4184 181.224 73.1486 179.967 71.5822 179.967C70.0158 179.967 68.7459 181.224 68.7459 182.775C68.7459 184.325 70.0158 185.582 71.5822 185.582Z"
      fill="#F4EBC1" />
    <path d="M388.293 98.5515C389.86 98.5515 391.13 97.2945 391.13 95.744C391.13 94.1935 389.86 92.9366 388.293 92.9366C386.727 92.9366 385.457 94.1935 385.457 95.744C385.457 97.2945 386.727 98.5515 388.293 98.5515Z"
      fill="#F4EBC1" />
    <path d="M354.259 253.896C356.869 253.896 358.986 251.801 358.986 249.217C358.986 246.633 356.869 244.538 354.259 244.538C351.648 244.538 349.532 246.633 349.532 249.217C349.532 251.801 351.648 253.896 354.259 253.896Z"
      fill="#F4EBC1" />
    <path d="M213.393 107.91C216.004 107.91 218.12 105.815 218.12 103.231C218.12 100.646 216.004 98.5515 213.393 98.5515C210.783 98.5515 208.666 100.646 208.666 103.231C208.666 105.815 210.783 107.91 213.393 107.91Z"
      fill="#F4EBC1" />
    <path d="M423.274 353.092C425.362 353.092 427.055 351.416 427.055 349.349C427.055 347.282 425.362 345.606 423.274 345.606C421.185 345.606 419.492 347.282 419.492 349.349C419.492 351.416 421.185 353.092 423.274 353.092Z"
      fill="#F4EBC1" />
    <path d="M152.005 434.781C152.005 436.956 150.232 438.71 148.05 438.71C145.824 438.71 144.059 436.955 144.059 434.781C144.059 432.606 145.824 430.853 148.05 430.853C150.232 430.853 152.005 432.607 152.005 434.781ZM430.861 281.465C430.861 284.76 428.151 287.443 424.815 287.443C421.456 287.443 418.768 284.768 418.768 281.465C418.768 278.155 421.449 275.48 424.815 275.48C428.151 275.472 430.861 278.156 430.861 281.465Z"
      fill="#F4EBC1" />
    <rect width="28.3622" height="28.0743" fill="black" fill-opacity="0" transform="translate(241.469 242.454)" />
  </g>
  <g class="singularity">
    <path d="M255.65 270.528C263.482 270.528 269.831 264.243 269.831 256.491C269.831 248.738 263.482 242.454 255.65 242.454C247.818 242.454 241.469 248.738 241.469 256.491C241.469 264.243 247.818 270.528 255.65 270.528Z"
      fill="#141160" />
  </g>
  <g class="singularity" id="rotate">
    <path d="M255.65 270.528C263.482 270.528 269.831 264.243 269.831 256.491C269.831 248.738 263.482 242.454 255.65 242.454C247.818 242.454 241.469 248.738 241.469 256.491C241.469 264.243 247.818 270.528 255.65 270.528Z"
    />
    <path d="M255.715 242.74C263.422 242.74 269.677 248.925 269.677 256.561C269.677 264.191 263.422 270.382 255.715 270.382"
      fill="#00000A" />
  </g>
</svg>