<svg width="28" height="28" viewBox="0 0 28 28" fill="none" xmlns="http://www.w3.org/2000/svg">
<path d="M0 24H28V28H0V24Z" fill="white"/>
<path d="M15 12H28V16H15V12Z" fill="white"/>
<path d="M0 12H13V16H0V12Z" fill="white"/>
<path d="M4 1.74846e-07L4 12H0L4.76837e-07 0L4 1.74846e-07Z" fill="white"/>
<path d="M4 18L4 22H6.3573e-08L2.38419e-07 18H4Z" fill="white"/>
<path d="M28 16V22H24V16H28Z" fill="white"/>
<path d="M28 6V10H24V6H28Z" fill="white"/>
<path d="M6 1.74846e-07H28V4H6V1.74846e-07Z" fill="white"/>
</svg>
