<svg xmlns="http://www.w3.org/2000/svg" width="128" height="128" fill="none" viewBox="0 0 128 128"><rect width="125" height="125" x="1.5" y="1.5" fill="#fff" stroke="#000" stroke-width="3" rx="5.5"/><path fill="#000" d="M0 0V21.5676H21.5676V0H0ZM30.8108 0V6.16216H33.8919V0H30.8108ZM36.973 0V3.08108H40.0541V6.16216H36.973V12.3243H40.0541V9.24324H43.1351V12.3243H46.2162V15.4054H52.3784V18.4865H49.2973V27.7297H36.973V21.5676H40.0541V15.4054H33.8919V18.4865H30.8108V12.3243H33.8919V9.24324H24.6486V12.3243H27.7297V15.4054H24.6486V21.5676H27.7297V24.6486H18.4865V27.7297H15.4054V24.6486H0V30.8108H3.08108V33.8919H21.5676V36.973H15.4054V40.0541H9.24324V36.973H6.16216V40.0541H3.08108V43.1351H0V49.2973H6.16216V52.3784H3.08108V55.4595H6.16216V58.5405H0V64.7027H3.08108V67.7838H9.24324V70.8649H6.16216V73.9459H9.24324V70.8649H12.3243V83.1892H15.4054V73.9459H18.4865V77.027H21.5676V80.1081H18.4865V83.1892H24.6486V86.2703H27.7297V89.3514H24.6486V95.5135H27.7297V98.5946H24.6486V114H27.7297V104.757H30.8108V114H33.8919V101.676H36.973V104.757H40.0541V107.838H36.973V114H40.0541V110.919H43.1351V114H55.4595V110.919H58.5405V107.838H61.6216V110.919H64.7027V107.838H61.6216V104.757H58.5405V107.838H55.4595V104.757H52.3784V107.838H49.2973V101.676H55.4595V98.5946H58.5405V101.676H64.7027V98.5946H58.5405V92.4324H67.7838V95.5135H70.8649V98.5946H80.1081V92.4324H83.1892V89.3514H80.1081V92.4324H70.8649V89.3514H73.9459V86.2703H67.7838V83.1892H61.6216V80.1081H64.7027V77.027H67.7838V80.1081H70.8649V83.1892H77.027V86.2703H80.1081V80.1081H70.8649V77.027H77.027V73.9459H80.1081V67.7838H86.2703V58.5405H89.3514V61.6216H92.4324V58.5405H95.5135V55.4595H98.5946V58.5405H104.757V61.6216H107.838V64.7027H110.919V67.7838H101.676V61.6216H98.5946V67.7838H92.4324V64.7027H89.3514V67.7838H92.4324V70.8649H95.5135V73.9459H92.4324V83.1892H95.5135V86.2703H86.2703V95.5135H83.1892V98.5946H86.2703V104.757H89.3514V107.838H86.2703V110.919H89.3514V107.838H92.4324V110.919H95.5135V114H98.5946V110.919H104.757V107.838H107.838V104.757H92.4324V101.676H110.919V107.838H114V92.4324H110.919V86.2703H107.838V83.1892H110.919V80.1081H114V64.7027H110.919V61.6216H114V55.4595H110.919V52.3784H114V49.2973H110.919V46.2162H114V43.1351H110.919V36.973H107.838V30.8108H114V27.7297H110.919V24.6486H107.838V27.7297H104.757V24.6486H101.676V27.7297H104.757V36.973H101.676V40.0541H98.5946V33.8919H101.676V30.8108H98.5946V33.8919H95.5135V27.7297H98.5946V24.6486H95.5135V27.7297H92.4324V24.6486H89.3514V18.4865H86.2703V21.5676H83.1892V18.4865H80.1081V21.5676H83.1892V24.6486H80.1081V27.7297H77.027V15.4054H80.1081V12.3243H83.1892V15.4054H86.2703V12.3243H89.3514V3.08108H86.2703V9.24324H80.1081V12.3243H77.027V9.24324H73.9459V6.16216H83.1892V3.08108H70.8649V0H67.7838V6.16216H70.8649V9.24324H64.7027V12.3243H61.6216V15.4054H58.5405V18.4865H55.4595V12.3243H49.2973V6.16216H52.3784V9.24324H61.6216V3.08108H64.7027V0H61.6216V3.08108H58.5405V0H52.3784V3.08108H49.2973V0H36.973ZM92.4324 0V21.5676H114V0H92.4324ZM18.4865 3.08108V18.4865H3.08108V3.08108H18.4865ZM24.6486 3.08108V6.16216H27.7297V3.08108H24.6486ZM58.5405 3.08108V6.16216H55.4595V3.08108H58.5405ZM110.919 3.08108V18.4865H95.5135V3.08108H110.919ZM6.16216 6.16216V15.4054H15.4054V6.16216H6.16216ZM46.2162 6.16216V9.24324H43.1351V6.16216H46.2162ZM98.5946 6.16216V15.4054H107.838V6.16216H98.5946ZM77.027 12.3243V15.4054H67.7838V21.5676H70.8649V18.4865H73.9459V21.5676H70.8649V24.6486H73.9459V27.7297H77.027V30.8108H67.7838V33.8919H70.8649V36.973H77.027V33.8919H80.1081V30.8108H86.2703V33.8919H95.5135V36.973H86.2703V46.2162H83.1892V49.2973H89.3514V46.2162H95.5135V49.2973H98.5946V43.1351H92.4324V40.0541H98.5946V43.1351H101.676V40.0541H104.757V36.973H107.838V40.0541H104.757V43.1351H110.919V46.2162H107.838V49.2973H110.919V52.3784H107.838V55.4595H110.919V58.5405H104.757V49.2973H101.676V52.3784H95.5135V55.4595H92.4324V58.5405H89.3514V55.4595H86.2703V58.5405H83.1892V64.7027H77.027V67.7838H70.8649V64.7027H73.9459V58.5405H77.027V61.6216H80.1081V52.3784H77.027V49.2973H80.1081V46.2162H83.1892V36.973H77.027V40.0541H80.1081V43.1351H73.9459V40.0541H70.8649V36.973H67.7838V33.8919H61.6216V36.973H58.5405V40.0541H61.6216V43.1351H64.7027V40.0541H67.7838V43.1351H64.7027V46.2162H73.9459V55.4595H67.7838V58.5405H70.8649V61.6216H64.7027V64.7027H67.7838V70.8649H77.027V73.9459H64.7027V77.027H61.6216V73.9459H64.7027V70.8649H61.6216V67.7838H64.7027V64.7027H61.6216V61.6216H64.7027V58.5405H61.6216V55.4595H67.7838V52.3784H70.8649V49.2973H64.7027V52.3784H61.6216V49.2973H64.7027V46.2162H55.4595V49.2973H58.5405V58.5405H52.3784V61.6216H58.5405V64.7027H55.4595V67.7838H58.5405V70.8649H55.4595V67.7838H52.3784V70.8649H49.2973V73.9459H58.5405V83.1892H61.6216V89.3514H58.5405V92.4324H55.4595V89.3514H52.3784V95.5135H55.4595V98.5946H49.2973V101.676H36.973V95.5135H40.0541V92.4324H33.8919V95.5135H27.7297V89.3514H30.8108V83.1892H24.6486V80.1081H30.8108V70.8649H33.8919V77.027H36.973V70.8649H40.0541V67.7838H30.8108V61.6216H27.7297V64.7027H24.6486V67.7838H27.7297V77.027H24.6486V73.9459H18.4865V70.8649H12.3243V67.7838H15.4054V64.7027H9.24324V61.6216H6.16216V58.5405H15.4054V55.4595H12.3243V52.3784H9.24324V46.2162H6.16216V43.1351H15.4054V40.0541H21.5676V36.973H24.6486V33.8919H21.5676V30.8108H18.4865V27.7297H30.8108V24.6486H33.8919V27.7297H36.973V30.8108H40.0541V33.8919H36.973V40.0541H40.0541V36.973H43.1351V33.8919H46.2162V36.973H43.1351V40.0541H46.2162V43.1351H52.3784V40.0541H49.2973V33.8919H52.3784V36.973H58.5405V33.8919H55.4595V30.8108H58.5405V33.8919H61.6216V30.8108H67.7838V27.7297H70.8649V24.6486H61.6216V27.7297H52.3784V30.8108H49.2973V27.7297H52.3784V24.6486H61.6216V21.5676H58.5405V18.4865H61.6216V15.4054H64.7027V12.3243H77.027ZM30.8108 18.4865V21.5676H27.7297V18.4865H30.8108ZM36.973 18.4865V21.5676H33.8919V18.4865H36.973ZM43.1351 18.4865V24.6486H46.2162V18.4865H43.1351ZM55.4595 18.4865V21.5676H52.3784V18.4865H55.4595ZM61.6216 18.4865V21.5676H64.7027V18.4865H61.6216ZM9.24324 27.7297V30.8108H6.16216V27.7297H9.24324ZM30.8108 27.7297V30.8108H27.7297V36.973H24.6486V40.0541H21.5676V43.1351H15.4054V46.2162H12.3243V49.2973H15.4054V52.3784H21.5676V49.2973H15.4054V46.2162H21.5676V43.1351H24.6486V40.0541H27.7297V43.1351H30.8108V46.2162H27.7297V49.2973H33.8919V52.3784H36.973V55.4595H40.0541V58.5405H36.973V64.7027H40.0541V61.6216H43.1351V64.7027H46.2162V67.7838H52.3784V64.7027H49.2973V58.5405H52.3784V55.4595H55.4595V52.3784H52.3784V46.2162H55.4595V43.1351H58.5405V40.0541H55.4595V43.1351H52.3784V46.2162H49.2973V52.3784H36.973V46.2162H40.0541V43.1351H30.8108V33.8919H33.8919V27.7297H30.8108ZM101.676 43.1351V46.2162H104.757V43.1351H101.676ZM43.1351 46.2162V49.2973H46.2162V46.2162H43.1351ZM89.3514 49.2973V55.4595H92.4324V49.2973H89.3514ZM52.3784 52.3784V55.4595H49.2973V52.3784H52.3784ZM83.1892 52.3784V55.4595H86.2703V52.3784H83.1892ZM18.4865 55.4595V58.5405H15.4054V61.6216H18.4865V64.7027H21.5676V61.6216H24.6486V58.5405H30.8108V61.6216H33.8919V58.5405H30.8108V55.4595H24.6486V58.5405H21.5676V55.4595H18.4865ZM21.5676 58.5405V61.6216H18.4865V58.5405H21.5676ZM46.2162 58.5405V61.6216H43.1351V58.5405H46.2162ZM18.4865 67.7838V70.8649H21.5676V67.7838H18.4865ZM43.1351 70.8649V73.9459H46.2162V70.8649H43.1351ZM83.1892 70.8649V83.1892H89.3514V77.027H86.2703V70.8649H83.1892ZM104.757 70.8649V77.027H110.919V80.1081H98.5946V83.1892H104.757V86.2703H98.5946V83.1892H95.5135V80.1081H98.5946V70.8649H104.757ZM110.919 70.8649V73.9459H107.838V70.8649H110.919ZM0 73.9459V89.3514H3.08108V73.9459H0ZM36.973 77.027V80.1081H40.0541V83.1892H36.973V89.3514H40.0541V86.2703H43.1351V89.3514H46.2162V95.5135H43.1351V98.5946H46.2162V95.5135H49.2973V89.3514H52.3784V86.2703H58.5405V83.1892H55.4595V77.027H52.3784V83.1892H49.2973V77.027H36.973ZM6.16216 80.1081V83.1892H9.24324V80.1081H6.16216ZM30.8108 80.1081V83.1892H33.8919V80.1081H30.8108ZM46.2162 83.1892V86.2703H43.1351V83.1892H46.2162ZM9.24324 86.2703V89.3514H21.5676V86.2703H9.24324ZM67.7838 86.2703V89.3514H64.7027V86.2703H67.7838ZM98.5946 89.3514V98.5946H89.3514V89.3514H98.5946ZM107.838 89.3514V92.4324H110.919V95.5135H107.838V92.4324H104.757V95.5135H101.676V89.3514H107.838ZM0 92.4324V114H21.5676V92.4324H0ZM92.4324 92.4324V95.5135H95.5135V92.4324H92.4324ZM18.4865 95.5135V110.919H3.08108V95.5135H18.4865ZM6.16216 98.5946V107.838H15.4054V98.5946H6.16216ZM33.8919 98.5946V101.676H30.8108V98.5946H33.8919ZM77.027 101.676V104.757H70.8649V107.838H77.027V104.757H83.1892V101.676H77.027ZM49.2973 107.838V110.919H43.1351V107.838H49.2973ZM55.4595 107.838V110.919H52.3784V107.838H55.4595ZM98.5946 107.838V110.919H95.5135V107.838H98.5946ZM77.027 110.919V114H83.1892V110.919H77.027ZM110.919 110.919V114H114V110.919H110.919Z" transform="translate(7 7)"/></svg>